<svg xmlns="http://www.w3.org/2000/svg" xmlns:xlink="http://www.w3.org/1999/xlink" width="500" zoomAndPan="magnify" viewBox="0 0 375 374.999991" height="500" preserveAspectRatio="xMidYMid meet" version="1.0"><defs><g/></defs><g fill="#000000" fill-opacity="1"><g transform="translate(7.882977, 209.918238)"><g><path d="M 30.78125 -35.40625 C 27.707031 -35.40625 25.054688 -34.265625 22.828125 -31.984375 C 20.609375 -29.703125 19.5 -26.960938 19.5 -23.765625 C 19.5 -20.492188 20.609375 -17.71875 22.828125 -15.4375 C 25.054688 -13.15625 27.707031 -12.015625 30.78125 -12.015625 C 32.257812 -12.015625 33.660156 -12.195312 34.984375 -12.5625 C 36.316406 -12.9375 37.289062 -13.3125 37.90625 -13.6875 L 38.734375 -14.234375 L 44.28125 -2.859375 C 43.851562 -2.554688 43.253906 -2.171875 42.484375 -1.703125 C 41.710938 -1.242188 39.953125 -0.613281 37.203125 0.1875 C 34.460938 0.988281 31.523438 1.390625 28.390625 1.390625 C 21.421875 1.390625 15.300781 -1.054688 10.03125 -5.953125 C 4.757812 -10.859375 2.125 -16.734375 2.125 -23.578125 C 2.125 -30.484375 4.757812 -36.414062 10.03125 -41.375 C 15.300781 -46.332031 21.421875 -48.8125 28.390625 -48.8125 C 31.523438 -48.8125 34.414062 -48.441406 37.0625 -47.703125 C 39.71875 -46.960938 41.601562 -46.222656 42.71875 -45.484375 L 44.28125 -44.375 L 38.734375 -33.1875 C 36.703125 -34.664062 34.050781 -35.40625 30.78125 -35.40625 Z M 30.78125 -35.40625 "/></g></g></g><g fill="#000000" fill-opacity="1"><g transform="translate(44.576857, 209.918238)"><g><path d="M 10.03125 -5.640625 C 4.757812 -10.328125 2.125 -16.335938 2.125 -23.671875 C 2.125 -31.003906 4.863281 -37.023438 10.34375 -41.734375 C 15.832031 -46.453125 22.613281 -48.8125 30.6875 -48.8125 C 38.644531 -48.8125 45.347656 -46.4375 50.796875 -41.6875 C 56.253906 -36.945312 58.984375 -30.941406 58.984375 -23.671875 C 58.984375 -16.398438 56.316406 -10.40625 50.984375 -5.6875 C 45.648438 -0.96875 38.882812 1.390625 30.6875 1.390625 C 22.1875 1.390625 15.300781 -0.953125 10.03125 -5.640625 Z M 22.6875 -31.703125 C 20.5625 -29.609375 19.5 -26.925781 19.5 -23.65625 C 19.5 -20.394531 20.515625 -17.734375 22.546875 -15.671875 C 24.585938 -13.609375 27.273438 -12.578125 30.609375 -12.578125 C 33.804688 -12.578125 36.4375 -13.625 38.5 -15.71875 C 40.570312 -17.8125 41.609375 -20.460938 41.609375 -23.671875 C 41.609375 -26.929688 40.539062 -29.609375 38.40625 -31.703125 C 36.28125 -33.804688 33.679688 -34.859375 30.609375 -34.859375 C 27.460938 -34.859375 24.820312 -33.804688 22.6875 -31.703125 Z M 22.6875 -31.703125 "/></g></g></g><g fill="#000000" fill-opacity="1"><g transform="translate(96.984565, 209.918238)"><g><path d="M 30.78125 -35.40625 C 27.707031 -35.40625 25.054688 -34.265625 22.828125 -31.984375 C 20.609375 -29.703125 19.5 -26.960938 19.5 -23.765625 C 19.5 -20.492188 20.609375 -17.71875 22.828125 -15.4375 C 25.054688 -13.15625 27.707031 -12.015625 30.78125 -12.015625 C 32.257812 -12.015625 33.660156 -12.195312 34.984375 -12.5625 C 36.316406 -12.9375 37.289062 -13.3125 37.90625 -13.6875 L 38.734375 -14.234375 L 44.28125 -2.859375 C 43.851562 -2.554688 43.253906 -2.171875 42.484375 -1.703125 C 41.710938 -1.242188 39.953125 -0.613281 37.203125 0.1875 C 34.460938 0.988281 31.523438 1.390625 28.390625 1.390625 C 21.421875 1.390625 15.300781 -1.054688 10.03125 -5.953125 C 4.757812 -10.859375 2.125 -16.734375 2.125 -23.578125 C 2.125 -30.484375 4.757812 -36.414062 10.03125 -41.375 C 15.300781 -46.332031 21.421875 -48.8125 28.390625 -48.8125 C 31.523438 -48.8125 34.414062 -48.441406 37.0625 -47.703125 C 39.71875 -46.960938 41.601562 -46.222656 42.71875 -45.484375 L 44.28125 -44.375 L 38.734375 -33.1875 C 36.703125 -34.664062 34.050781 -35.40625 30.78125 -35.40625 Z M 30.78125 -35.40625 "/></g></g></g><g fill="#000000" fill-opacity="1"><g transform="translate(133.678446, 209.918238)"><g><path d="M 10.03125 -5.640625 C 4.757812 -10.328125 2.125 -16.335938 2.125 -23.671875 C 2.125 -31.003906 4.863281 -37.023438 10.34375 -41.734375 C 15.832031 -46.453125 22.613281 -48.8125 30.6875 -48.8125 C 38.644531 -48.8125 45.347656 -46.4375 50.796875 -41.6875 C 56.253906 -36.945312 58.984375 -30.941406 58.984375 -23.671875 C 58.984375 -16.398438 56.316406 -10.40625 50.984375 -5.6875 C 45.648438 -0.96875 38.882812 1.390625 30.6875 1.390625 C 22.1875 1.390625 15.300781 -0.953125 10.03125 -5.640625 Z M 22.6875 -31.703125 C 20.5625 -29.609375 19.5 -26.925781 19.5 -23.65625 C 19.5 -20.394531 20.515625 -17.734375 22.546875 -15.671875 C 24.585938 -13.609375 27.273438 -12.578125 30.609375 -12.578125 C 33.804688 -12.578125 36.4375 -13.625 38.5 -15.71875 C 40.570312 -17.8125 41.609375 -20.460938 41.609375 -23.671875 C 41.609375 -26.929688 40.539062 -29.609375 38.40625 -31.703125 C 36.28125 -33.804688 33.679688 -34.859375 30.609375 -34.859375 C 27.460938 -34.859375 24.820312 -33.804688 22.6875 -31.703125 Z M 22.6875 -31.703125 "/></g></g></g><g fill="#000000" fill-opacity="1"><g transform="translate(186.086154, 209.918238)"><g><path d="M 5.546875 0 L 5.546875 -47.421875 L 21.90625 -47.421875 L 21.90625 -42.4375 L 22.09375 -42.4375 C 26.34375 -46.6875 30.875 -48.8125 35.6875 -48.8125 C 38.03125 -48.8125 40.359375 -48.503906 42.671875 -47.890625 C 44.984375 -47.273438 47.203125 -46.316406 49.328125 -45.015625 C 51.453125 -43.722656 53.175781 -41.890625 54.5 -39.515625 C 55.820312 -37.148438 56.484375 -34.394531 56.484375 -31.25 L 56.484375 0 L 40.125 0 L 40.125 -26.8125 C 40.125 -29.28125 39.335938 -31.4375 37.765625 -33.28125 C 36.191406 -35.132812 34.144531 -36.0625 31.625 -36.0625 C 29.15625 -36.0625 26.914062 -35.101562 24.90625 -33.1875 C 22.90625 -31.28125 21.90625 -29.15625 21.90625 -26.8125 L 21.90625 0 Z M 5.546875 0 "/></g></g></g><g fill="#000000" fill-opacity="1"><g transform="translate(238.493873, 209.918238)"><g><path d="M 20.984375 -47.421875 L 20.984375 -24.875 C 20.984375 -20.1875 21.691406 -16.851562 23.109375 -14.875 C 24.523438 -12.90625 26.925781 -11.921875 30.3125 -11.921875 C 33.707031 -11.921875 36.113281 -12.90625 37.53125 -14.875 C 38.945312 -16.851562 39.65625 -20.1875 39.65625 -24.875 L 39.65625 -47.421875 L 56.03125 -47.421875 L 56.03125 -20.890625 C 56.03125 -13.003906 53.976562 -7.316406 49.875 -3.828125 C 45.78125 -0.347656 39.265625 1.390625 30.328125 1.390625 C 21.390625 1.390625 14.867188 -0.347656 10.765625 -3.828125 C 6.671875 -7.316406 4.625 -13.003906 4.625 -20.890625 L 4.625 -47.421875 Z M 20.984375 -47.421875 "/></g></g></g><g fill="#000000" fill-opacity="1"><g transform="translate(290.439406, 209.918238)"><g><path d="M 8.328125 -47.421875 L 8.328125 -65.09375 L 24.6875 -65.09375 L 24.6875 -47.421875 L 34.671875 -47.421875 L 34.671875 -34.953125 L 24.6875 -34.953125 L 24.6875 -19.875 C 24.6875 -15.5 25.921875 -13.3125 28.390625 -13.3125 C 29.003906 -13.3125 29.648438 -13.429688 30.328125 -13.671875 C 31.003906 -13.921875 31.523438 -14.171875 31.890625 -14.421875 L 32.453125 -14.796875 L 36.515625 -1.578125 C 33.003906 0.398438 29 1.390625 24.5 1.390625 C 21.414062 1.390625 18.765625 0.851562 16.546875 -0.21875 C 14.328125 -1.300781 12.644531 -2.75 11.5 -4.5625 C 10.363281 -6.382812 9.550781 -8.296875 9.0625 -10.296875 C 8.570312 -12.304688 8.328125 -14.453125 8.328125 -16.734375 L 8.328125 -34.953125 L 1.484375 -34.953125 L 1.484375 -47.421875 Z M 8.328125 -47.421875 "/></g></g></g><g fill="#000000" fill-opacity="1"><g transform="translate(318.259574, 209.918238)"><g/></g></g><g fill="#000000" fill-opacity="1"><g transform="translate(334.802775, 209.918238)"><g><path d="M 16.09375 -19.78125 C 19.050781 -19.78125 21.5625 -18.75 23.625 -16.6875 C 25.6875 -14.625 26.71875 -12.113281 26.71875 -9.15625 C 26.71875 -6.257812 25.6875 -3.773438 23.625 -1.703125 C 21.5625 0.359375 19.050781 1.390625 16.09375 1.390625 C 13.1875 1.390625 10.703125 0.359375 8.640625 -1.703125 C 6.578125 -3.773438 5.546875 -6.257812 5.546875 -9.15625 C 5.546875 -12.113281 6.578125 -14.625 8.640625 -16.6875 C 10.703125 -18.75 13.1875 -19.78125 16.09375 -19.78125 Z M 16.09375 -19.78125 "/></g></g></g><g fill="#000000" fill-opacity="1"><g transform="translate(141.531296, 234.969492)"><g><path d="M 5.5625 -9.96875 C 6.539062 -9.96875 7.351562 -9.8125 8 -9.5 C 8.65625 -9.195312 8.984375 -8.800781 8.984375 -8.3125 C 8.984375 -8.101562 8.914062 -7.914062 8.78125 -7.75 C 8.644531 -7.582031 8.472656 -7.5 8.265625 -7.5 C 8.097656 -7.5 7.96875 -7.519531 7.875 -7.5625 C 7.78125 -7.613281 7.65625 -7.695312 7.5 -7.8125 C 7.425781 -7.882812 7.304688 -7.972656 7.140625 -8.078125 C 6.992188 -8.148438 6.785156 -8.210938 6.515625 -8.265625 C 6.242188 -8.316406 5.992188 -8.34375 5.765625 -8.34375 C 5.117188 -8.34375 4.546875 -8.191406 4.046875 -7.890625 C 3.554688 -7.585938 3.175781 -7.171875 2.90625 -6.640625 C 2.632812 -6.117188 2.5 -5.535156 2.5 -4.890625 C 2.5 -4.234375 2.628906 -3.644531 2.890625 -3.125 C 3.160156 -2.601562 3.535156 -2.191406 4.015625 -1.890625 C 4.503906 -1.597656 5.054688 -1.453125 5.671875 -1.453125 C 6.316406 -1.453125 6.835938 -1.550781 7.234375 -1.75 C 7.328125 -1.800781 7.445312 -1.878906 7.59375 -1.984375 C 7.71875 -2.085938 7.828125 -2.160156 7.921875 -2.203125 C 8.015625 -2.253906 8.128906 -2.28125 8.265625 -2.28125 C 8.515625 -2.28125 8.707031 -2.203125 8.84375 -2.046875 C 8.988281 -1.898438 9.0625 -1.703125 9.0625 -1.453125 C 9.0625 -1.191406 8.894531 -0.929688 8.5625 -0.671875 C 8.238281 -0.421875 7.800781 -0.210938 7.25 -0.046875 C 6.695312 0.109375 6.101562 0.1875 5.46875 0.1875 C 4.53125 0.1875 3.695312 -0.03125 2.96875 -0.46875 C 2.25 -0.914062 1.691406 -1.523438 1.296875 -2.296875 C 0.910156 -3.078125 0.71875 -3.941406 0.71875 -4.890625 C 0.71875 -5.847656 0.921875 -6.710938 1.328125 -7.484375 C 1.742188 -8.265625 2.316406 -8.875 3.046875 -9.3125 C 3.785156 -9.75 4.625 -9.96875 5.5625 -9.96875 Z M 5.5625 -9.96875 "/></g></g></g><g fill="#000000" fill-opacity="1"><g transform="translate(163.222644, 234.969492)"><g><path d="M 3.234375 -0.890625 C 3.234375 -0.640625 3.144531 -0.425781 2.96875 -0.25 C 2.800781 -0.0820312 2.59375 0 2.34375 0 C 2.09375 0 1.882812 -0.0820312 1.71875 -0.25 C 1.550781 -0.425781 1.46875 -0.640625 1.46875 -0.890625 L 1.46875 -12.875 C 1.46875 -13.125 1.550781 -13.332031 1.71875 -13.5 C 1.894531 -13.675781 2.109375 -13.765625 2.359375 -13.765625 C 2.609375 -13.765625 2.816406 -13.675781 2.984375 -13.5 C 3.148438 -13.332031 3.234375 -13.125 3.234375 -12.875 Z M 3.234375 -0.890625 "/></g></g></g><g fill="#000000" fill-opacity="1"><g transform="translate(180.060233, 234.969492)"><g><path d="M 10.546875 -4.875 C 10.546875 -3.90625 10.328125 -3.035156 9.890625 -2.265625 C 9.460938 -1.492188 8.875 -0.890625 8.125 -0.453125 C 7.375 -0.0234375 6.546875 0.1875 5.640625 0.1875 C 4.734375 0.1875 3.90625 -0.0234375 3.15625 -0.453125 C 2.40625 -0.890625 1.8125 -1.492188 1.375 -2.265625 C 0.9375 -3.035156 0.71875 -3.90625 0.71875 -4.875 C 0.71875 -5.84375 0.9375 -6.71875 1.375 -7.5 C 1.8125 -8.28125 2.40625 -8.882812 3.15625 -9.3125 C 3.90625 -9.75 4.734375 -9.96875 5.640625 -9.96875 C 6.546875 -9.96875 7.375 -9.75 8.125 -9.3125 C 8.875 -8.882812 9.460938 -8.28125 9.890625 -7.5 C 10.328125 -6.71875 10.546875 -5.84375 10.546875 -4.875 Z M 8.78125 -4.875 C 8.78125 -5.539062 8.640625 -6.140625 8.359375 -6.671875 C 8.085938 -7.203125 7.710938 -7.613281 7.234375 -7.90625 C 6.753906 -8.195312 6.222656 -8.34375 5.640625 -8.34375 C 5.054688 -8.34375 4.523438 -8.195312 4.046875 -7.90625 C 3.566406 -7.613281 3.1875 -7.203125 2.90625 -6.671875 C 2.632812 -6.140625 2.5 -5.539062 2.5 -4.875 C 2.5 -4.21875 2.632812 -3.628906 2.90625 -3.109375 C 3.1875 -2.585938 3.566406 -2.179688 4.046875 -1.890625 C 4.523438 -1.597656 5.054688 -1.453125 5.640625 -1.453125 C 6.222656 -1.453125 6.753906 -1.597656 7.234375 -1.890625 C 7.710938 -2.179688 8.085938 -2.585938 8.359375 -3.109375 C 8.640625 -3.628906 8.78125 -4.21875 8.78125 -4.875 Z M 8.78125 -4.875 "/></g></g></g><g fill="#000000" fill-opacity="1"><g transform="translate(203.462495, 234.969492)"><g><path d="M 3.96875 -8.015625 L 3.96875 -2.46875 C 3.96875 -1.851562 4.242188 -1.546875 4.796875 -1.546875 C 4.890625 -1.546875 5.007812 -1.566406 5.15625 -1.609375 C 5.300781 -1.648438 5.421875 -1.671875 5.515625 -1.671875 C 5.671875 -1.671875 5.800781 -1.601562 5.90625 -1.46875 C 6.019531 -1.332031 6.078125 -1.160156 6.078125 -0.953125 C 6.078125 -0.691406 5.925781 -0.46875 5.625 -0.28125 C 5.332031 -0.09375 5.003906 0 4.640625 0 C 4.222656 0 3.84375 -0.0390625 3.5 -0.125 C 3.164062 -0.21875 2.863281 -0.441406 2.59375 -0.796875 C 2.332031 -1.148438 2.203125 -1.6875 2.203125 -2.40625 L 2.203125 -8.015625 L 1.109375 -8.015625 C 0.878906 -8.015625 0.6875 -8.09375 0.53125 -8.25 C 0.375 -8.40625 0.296875 -8.601562 0.296875 -8.84375 C 0.296875 -9.070312 0.375 -9.257812 0.53125 -9.40625 C 0.6875 -9.5625 0.878906 -9.640625 1.109375 -9.640625 L 2.203125 -9.640625 L 2.203125 -11.203125 C 2.203125 -11.453125 2.285156 -11.660156 2.453125 -11.828125 C 2.617188 -12.003906 2.832031 -12.09375 3.09375 -12.09375 C 3.34375 -12.09375 3.550781 -12.003906 3.71875 -11.828125 C 3.882812 -11.660156 3.96875 -11.453125 3.96875 -11.203125 L 3.96875 -9.640625 L 5.515625 -9.640625 C 5.742188 -9.640625 5.9375 -9.5625 6.09375 -9.40625 C 6.25 -9.25 6.328125 -9.054688 6.328125 -8.828125 C 6.328125 -8.585938 6.25 -8.390625 6.09375 -8.234375 C 5.9375 -8.085938 5.742188 -8.015625 5.515625 -8.015625 Z M 3.96875 -8.015625 "/></g></g></g><g fill="#000000" fill-opacity="1"><g transform="translate(222.661882, 234.969492)"><g><path d="M 6.171875 -9.921875 C 8.359375 -9.921875 9.453125 -8.566406 9.453125 -5.859375 L 9.453125 -0.890625 C 9.453125 -0.640625 9.367188 -0.425781 9.203125 -0.25 C 9.035156 -0.0820312 8.820312 0 8.5625 0 C 8.3125 0 8.101562 -0.0820312 7.9375 -0.25 C 7.769531 -0.425781 7.6875 -0.640625 7.6875 -0.890625 L 7.6875 -5.859375 C 7.6875 -7.472656 7.003906 -8.28125 5.640625 -8.28125 C 4.910156 -8.28125 4.300781 -8.046875 3.8125 -7.578125 C 3.332031 -7.117188 3.09375 -6.546875 3.09375 -5.859375 L 3.09375 -0.890625 C 3.09375 -0.640625 3.007812 -0.425781 2.84375 -0.25 C 2.675781 -0.0820312 2.460938 0 2.203125 0 C 1.941406 0 1.726562 -0.0820312 1.5625 -0.25 C 1.40625 -0.414062 1.328125 -0.628906 1.328125 -0.890625 L 1.328125 -12.875 C 1.328125 -13.125 1.410156 -13.332031 1.578125 -13.5 C 1.742188 -13.675781 1.953125 -13.765625 2.203125 -13.765625 C 2.460938 -13.765625 2.675781 -13.675781 2.84375 -13.5 C 3.007812 -13.332031 3.09375 -13.125 3.09375 -12.875 L 3.09375 -8.171875 C 3.394531 -8.648438 3.828125 -9.0625 4.390625 -9.40625 C 4.953125 -9.75 5.546875 -9.921875 6.171875 -9.921875 Z M 6.171875 -9.921875 "/></g></g></g></svg>